# xmcd
#
# Track frame offsets: 
#        150
#        27127
#        44104
#        54886
#
# Disc length: 927 seconds
#
# Revision: 1
# Processed by: cddbd v1.5.2PL0 Copyright (c) Steve Scherf et al.
# Submitted via: ExactAudioCopy v1.0b3
#
DISCID=2c039d04
DTITLE=Speed Learning - Speed Learning12-E NEW YORK, NEW YORK
DYEAR=0
DGENRE=
TTITLE0=A Business Trip To New York
TTITLE1=Getting Transferred To New York
TTITLE2=Finding An Apartment
TTITLE3=Starting College In New York
EXTD=
EXTT0=
EXTT1=
EXTT2=
EXTT3=
PLAYORDER=
